<svg id="Capa_1" enable-background="new 0 0 512.003 512.003" height="512" viewBox="0 0 512.003 512.003" width="512" xmlns="http://www.w3.org/2000/svg"><g><path d="m46.819 507.609c5.857 5.858 15.355 5.859 21.213 0l198.26-198.26 3.123 26.186c.727 6.09 5.088 11.125 11.013 12.713 5.911 1.584 12.212-.583 15.893-5.503l50.099-66.966 76.87 32.945c5.642 2.417 12.179 1.156 16.516-3.18 4.337-4.337 5.597-10.878 3.181-16.516l-32.945-76.87 66.967-50.099c4.911-3.674 7.091-9.969 5.504-15.893-1.588-5.925-6.622-10.286-12.713-11.012l-83.044-9.904-9.904-83.044c-.727-6.091-5.088-11.125-11.013-12.713-5.926-1.588-12.219.592-15.893 5.503l-50.099 66.966-76.87-32.945c-5.641-2.417-12.18-1.156-16.516 3.181-4.337 4.337-5.597 10.878-3.181 16.515l32.945 76.87-66.967 50.099c-4.911 3.674-7.091 9.969-5.504 15.893 1.588 5.925 6.622 10.286 12.713 11.012l26.186 3.123-198.261 198.26c-5.854 5.853-5.858 15.356 0 21.213zm216.827-325.075c5.546-4.148 7.53-11.554 4.802-17.92l-22.822-53.251 53.251 22.822c6.364 2.728 13.771.744 17.92-4.802l34.705-46.39 6.861 57.528c.82 6.876 6.241 12.298 13.118 13.118l57.526 6.861-46.39 34.706c-5.546 4.148-7.53 11.554-4.802 17.92l22.822 53.251-53.251-22.822c-6.366-2.729-13.772-.744-17.92 4.802l-34.705 46.389-6.86-57.527c-.82-6.877-6.241-12.298-13.118-13.118l-57.527-6.861zm-23.089 67.697 18.953 2.26 2.26 18.953-204.345 204.346-21.214-21.213z"/><path d="m439.804 50.984-21.213 21.213c-5.858 5.858-5.858 15.355 0 21.213 5.857 5.858 15.355 5.858 21.213 0l21.213-21.213c5.858-5.858 5.858-15.355 0-21.213-5.857-5.858-15.355-5.858-21.213 0z"/><path d="m272.662.514c-8.002 2.144-12.75 10.369-10.606 18.371l7.765 28.978c2.138 7.98 10.349 12.757 18.371 10.606 8.003-2.144 12.751-10.369 10.607-18.371l-7.765-28.978c-2.145-8.002-10.369-12.748-18.372-10.606z"/><path d="m358.072 319.27c-8.002 2.144-12.75 10.369-10.606 18.371l7.765 28.978c2.142 7.992 10.362 12.755 18.371 10.606 8.003-2.144 12.751-10.369 10.607-18.371l-7.765-28.978c-2.145-8.002-10.369-12.749-18.372-10.606z"/><path d="m153.147 127.794c-7.991-2.144-16.227 2.604-18.371 10.606s2.605 16.227 10.607 18.371l28.978 7.764c8.021 2.15 16.232-2.625 18.371-10.607 2.144-8.002-2.605-16.227-10.607-18.371z"/><path d="m500.882 220.968-28.978-7.765c-7.997-2.143-16.227 2.604-18.372 10.606-2.144 8.002 2.604 16.227 10.606 18.371l28.978 7.765c8.035 2.154 16.237-2.638 18.372-10.606 2.144-8.002-2.605-16.227-10.606-18.371z"/></g></svg>